<mxfile host="app.diagrams.net" modified="2023-10-16T05:39:48.128Z" agent="Mozilla/5.0 (Windows NT 10.0; Win64; x64) AppleWebKit/537.36 (KHTML, like Gecko) Chrome/118.0.0.0 Safari/537.36" version="22.0.4" etag="P9rX4fj6vhi9z8uDUy8X" type="github">
  <diagram name="Trang-1" id="i04VpTb1A_9imi2oPYeN">
    <mxGraphModel>
      <root>
        <mxCell id="0" />
        <mxCell id="1" parent="0" />
      </root>
    </mxGraphModel>
  </diagram>
</mxfile>
